<svg width="587.8249999999999px" height="126.8px" xmlns="http://www.w3.org/2000/svg" viewBox="-43.912499999999966 11.600000000000001 587.8249999999999 126.8" style="background: rgba(0, 0, 0, 0);" preserveAspectRatio="xMidYMid"><defs><filter id="editing-golden" x="-100%" y="-100%" width="300%" height="300%"><feFlood flood-color="#806527" result="flood"></feFlood><feFlood flood-color="#fff694" result="flood-light"></feFlood><feComposite operator="in" in="flood" in2="SourceAlpha" result="flood-comp"></feComposite><feGaussianBlur in="flood-comp" stdDeviation="3" result="blur"></feGaussianBlur><feOffset in="blur" dy="3" result="offset-blur"></feOffset><feComponentTransfer in="offset-blur" result="comp-blur"><feFuncA type="linear" slope="0.7" intercept="-0.1"></feFuncA></feComponentTransfer><feSpecularLighting surfaceScale="200" specularConstant="20" specularExponent="1" lighting-color="#fff" in="blur" result="specular"><fePointLight x="-250" y="-250" z="3500"></fePointLight></feSpecularLighting><feComponentTransfer in="specular" result="inspecular"><feFuncA type="linear" slope="-1" intercept="1"></feFuncA></feComponentTransfer><feComposite operator="in" in="flood-light" in2="inspecular" result="inspecular2"></feComposite><feComposite operator="in" in="inspecular2" in2="SourceAlpha" result="light"></feComposite><feMerge><feMergeNode in="comp-blur"></feMergeNode><feMergeNode in="SourceGraphic"></feMergeNode><feMergeNode in="light"></feMergeNode></feMerge></filter></defs><g filter="url(#editing-golden)"><g transform="translate(41.489983797073364, 107.66999816894531)"><path d="M19.58-39.17L19.58-39.17L19.58-39.17Q21.25-41.28 22.94-43.10L22.94-43.10L22.94-43.10Q24.64-44.93 25.73-45.38L25.73-45.38L25.73-45.38Q26.82-45.82 30.14-45.82L30.14-45.82L30.14-45.82Q33.47-45.82 33.47-44.99L33.47-44.99L33.47-44.99Q33.47-44.67 32.77-44.29L32.77-44.29L32.77-44.29Q32.06-43.90 30.85-43.07L30.85-43.07L30.85-43.07Q29.63-42.24 25.76-38.53L25.76-38.53L25.76-38.53Q21.89-34.82 17.98-29.82L17.98-29.82L17.98-29.82Q17.86-29.70 17.86-29.47L17.86-29.47L17.86-29.47Q17.86-29.25 18.21-29.18L18.21-29.18L18.21-29.18Q18.56-29.12 19.20-28.99L19.20-28.99L19.20-28.99Q19.84-28.86 21.54-28L21.54-28L21.54-28Q23.23-27.14 24.58-25.82L24.58-25.82L24.58-25.82Q25.92-24.51 27.17-21.79L27.17-21.79L27.17-21.79Q28.42-19.07 28.61-16.67L28.61-16.67L28.61-16.67Q28.80-14.27 28.99-12.35L28.99-12.35L28.99-12.35Q29.18-10.43 29.98-6.85L29.98-6.85L29.98-6.85Q30.78-3.26 31.87-2.56L31.87-2.56L31.87-2.56Q32.19-2.30 32.19-1.92L32.19-1.92L32.19-1.92Q32.19-0.90 29.38-0.03L29.38-0.03L29.38-0.03Q26.56 0.83 24.35 0.83L24.35 0.83L24.35 0.83Q22.14 0.83 21.82-0.96L21.82-0.96L21.82-0.96Q21.50-2.88 21.38-10.11L21.38-10.11L21.38-12.67L21.38-12.67Q21.38-19.39 19.46-22.40L19.46-22.40L19.46-22.40Q17.79-25.02 16.45-25.34L16.45-25.34L16.45-25.34Q15.42-25.66 15.36-25.66L15.36-25.66L14.66-25.34L14.66-25.34Q13.12-23.55 12.22-21.89L12.22-21.89L12.22-21.89Q11.33-20.22 11.26-19.46L11.26-19.46L11.14-18.62L11.14-18.62Q11.14-9.60 11.90-3.20L11.90-3.20L11.90-3.20Q12.03-2.43 12.03-2.30L12.03-2.30L12.03-2.30Q12.03-0.90 9.06 0.13L9.06 0.13L9.06 0.13Q6.08 1.15 4.19 1.15L4.19 1.15L4.19 1.15Q2.30 1.15 2.30 0.58L2.30 0.58L2.30 0.58Q2.30 0.19 2.50-0.38L2.50-0.38L2.50-0.38Q3.14-1.79 3.42-9.70L3.42-9.70L3.42-9.70Q3.71-17.60 3.71-24.10L3.71-24.10L3.71-24.10Q3.71-30.59 3.46-34.62L3.46-34.62L3.46-34.62Q3.07-40.70 2.18-41.92L2.18-41.92L2.18-41.92Q1.47-42.82 1.47-43.07L1.47-43.07L1.47-43.07Q1.47-43.97 4.77-44.80L4.77-44.80L4.77-44.80Q8.06-45.63 10.08-45.63L10.08-45.63L10.08-45.63Q12.10-45.63 12.10-44.74L12.10-44.74L12.03-43.90L12.03-43.90Q11.20-36.99 11.20-29.12L11.20-29.12L11.20-29.12Q11.20-28.48 11.49-28.48L11.49-28.48L11.49-28.48Q11.78-28.48 12.16-29.06L12.16-29.06L12.16-29.06Q12.54-29.63 13.28-30.66L13.28-30.66L13.28-30.66Q14.02-31.68 15.97-34.37L15.97-34.37L15.97-34.37Q17.92-37.06 19.58-39.17ZM56.26-28.48L56.26-28.48L56.26-28.48Q55.10-21.57 55.10-10.88L55.10-10.88L55.10-10.88Q55.10-3.01 55.74-0.51L55.74-0.51L56 0.32L56 0.32Q56 1.15 54.59 1.15L54.59 1.15L54.59 1.15Q49.66 1.15 48.96-1.60L48.96-1.60L48.96-1.60Q48.90-1.92 48.67-1.92L48.67-1.92L48.67-1.92Q48.45-1.92 48.26-1.66L48.26-1.66L48.26-1.66Q46.27 0.96 42.11 0.96L42.11 0.96L42.11 0.96Q39.81 0.96 37.31-0.19L37.31-0.19L37.31-0.19Q35.78-0.90 34.82-2.66L34.82-2.66L34.82-2.66Q33.86-4.42 33.86-6.98L33.86-6.98L34.82-20.99L34.82-20.99Q34.82-25.41 33.92-27.26L33.92-27.26L33.92-27.26Q33.60-27.97 33.60-28.16L33.60-28.16L33.60-28.16Q33.60-28.54 33.92-28.67L33.92-28.67L33.92-28.67Q34.94-28.99 36.54-28.99L36.54-28.99L36.54-28.99Q42.75-28.99 42.75-23.87L42.75-23.87L42.75-23.87Q42.75-22.27 41.44-16.58L41.44-16.58L41.44-16.58Q40.13-10.88 40.13-8.48L40.13-8.48L40.13-8.48Q40.13-6.08 41.18-4.80L41.18-4.80L41.18-4.80Q42.24-3.52 44.13-3.52L44.13-3.52L44.13-3.52Q46.02-3.52 47.10-4.86L47.10-4.86L47.10-4.86Q48.19-6.21 48.38-7.55L48.38-7.55L48.58-8.90L48.58-8.90Q48.83-11.14 48.83-16.77L48.83-16.77L48.83-16.77Q48.83-22.40 48.48-23.90L48.48-23.90L48.48-23.90Q48.13-25.41 48.13-25.79L48.13-25.79L48.13-25.79Q48.13-27.39 50.69-28.32L50.69-28.32L50.69-28.32Q53.25-29.25 55.30-29.25L55.30-29.25L55.30-29.25Q56.26-29.25 56.26-28.48ZM79.17-22.02L78.85-17.15L79.10-14.91L79.10-14.91Q79.10-13.70 76.80-13.70L76.80-13.70L76.80-13.70Q72.13-13.70 72.13-17.22L72.13-17.22L72.13-17.22Q72.13-18.05 72.58-19.52L72.58-19.52L72.58-19.52Q73.02-20.99 73.02-22.08L73.02-22.08L73.02-22.08Q73.02-23.17 72.38-23.97L72.38-23.97L72.38-23.97Q71.74-24.77 70.53-24.77L70.53-24.77L70.53-24.77Q69.31-24.77 68.45-23.90L68.45-23.90L68.45-23.90Q67.58-23.04 67.39-22.14L67.39-22.14L67.14-21.25L67.14-21.25Q66.75-19.26 66.75-14.62L66.75-14.62L66.75-14.62Q66.75-9.98 66.88-7.33L66.88-7.33L66.88-7.33Q67.01-4.67 67.14-3.68L67.14-3.68L67.14-3.68Q67.26-2.69 67.26-2.50L67.26-2.50L67.26-2.50Q67.26-0.90 65.28 0.10L65.28 0.10L65.28 0.10Q63.30 1.09 61.31 1.09L61.31 1.09L61.31 1.09Q59.33 1.09 59.33 0.26L59.33 0.26L59.65-1.73L59.65-1.73Q60.54-7.30 60.54-16.26L60.54-16.26L60.54-16.26Q60.54-25.22 59.90-28.42L59.90-28.42L59.90-28.42Q59.90-29.18 61.25-29.18L61.25-29.18L61.25-29.18Q64.70-29.18 65.86-26.82L65.86-26.82L65.86-26.82Q65.92-26.56 66.08-26.56L66.08-26.56L66.08-26.56Q66.24-26.56 66.94-27.14L66.94-27.14L66.94-27.14Q69.06-28.86 71.94-28.86L71.94-28.86L71.94-28.86Q73.73-28.86 75.52-28.16L75.52-28.16L75.52-28.16Q79.17-26.69 79.17-22.02L79.17-22.02ZM82.69-9.79L82.69-9.79L82.69-9.79Q82.82-16.26 82.82-20.42L82.82-20.42L82.82-20.42Q82.82-24.58 82.24-28.35L82.24-28.35L82.24-28.35Q82.24-28.99 83.52-28.99L83.52-28.99L83.52-28.99Q84.80-28.99 85.73-28.67L85.73-28.67L85.73-28.67Q86.66-28.35 87.04-27.97L87.04-27.97L87.04-27.97Q88.06-26.94 88.22-26.94L88.22-26.94L88.22-26.94Q88.38-26.94 89.22-27.52L89.22-27.52L89.22-27.52Q91.71-29.12 94.75-29.12L94.75-29.12L94.75-29.12Q97.79-29.12 100.06-27.58L100.06-27.58L100.06-27.58Q102.34-26.05 103.30-23.55L103.30-23.55L103.30-23.55Q105.02-19.26 105.02-14.46L105.02-14.46L105.02-14.46Q105.02-9.73 103.30-4.99L103.30-4.99L103.30-4.99Q102.34-2.43 100.48-0.80L100.48-0.80L100.48-0.80Q98.62 0.83 96.13 0.83L96.13 0.83L96.13 0.83Q91.20 0.83 91.20-4.86L91.20-4.86L91.20-4.86Q91.20-6.40 91.84-6.40L91.84-6.40L91.84-6.40Q91.97-6.40 92.58-6.11L92.58-6.11L92.58-6.11Q93.18-5.82 93.76-5.82L93.76-5.82L93.76-5.82Q98.30-5.82 98.30-15.46L98.30-15.46L98.30-15.46Q98.30-25.09 93.44-25.09L93.44-25.09L93.44-25.09Q92.10-25.09 91.17-24.48L91.17-24.48L91.17-24.48Q90.24-23.87 89.98-23.30L89.98-23.30L89.73-22.66L89.73-22.66Q88.83-16.90 88.83-0.45L88.83-0.45L88.83-0.45Q88.83 6.98 89.12 10.21L89.12 10.21L89.12 10.21Q89.41 13.44 89.41 14.08L89.41 14.08L89.41 14.08Q89.41 14.72 89.02 15.23L89.02 15.23L89.02 15.23Q87.74 16.90 85.57 18.21L85.57 18.21L85.57 18.21Q83.39 19.52 81.73 19.52L81.73 19.52L81.73 19.52Q81.09 19.52 81.09 18.69L81.09 18.69L81.09 18.69Q82.11 12.22 82.69-9.79ZM113.47-34.24L113.47-34.24L111.94-34.30L111.94-34.30Q110.21-34.30 109.70-33.47L109.70-33.47L109.70-33.47Q109.57-33.28 109.38-33.28L109.38-33.28L109.38-33.28Q108.54-33.28 108.54-36.13L108.54-36.13L108.54-36.13Q108.54-38.98 109.41-39.74L109.41-39.74L109.41-39.74Q110.27-40.51 112.42-40.51L112.42-40.51L112.42-40.51Q114.56-40.51 115.33-39.78L115.33-39.78L115.33-39.78Q116.10-39.04 116.10-37.31L116.10-37.31L116.10-37.31Q116.10-35.58 115.52-34.91L115.52-34.91L115.52-34.91Q114.94-34.24 113.47-34.24ZM108.35-1.92L108.35-1.92L109.06-16.83L109.06-16.83Q109.06-22.14 107.84-24.06L107.84-24.06L107.84-24.06Q107.46-24.70 106.94-25.02L106.94-25.02L106.94-25.02Q106.56-25.15 106.56-25.54L106.56-25.54L106.56-25.54Q106.56-26.69 109.82-27.78L109.82-27.78L109.82-27.78Q113.09-28.86 114.59-28.86L114.59-28.86L114.59-28.86Q116.10-28.86 116.16-28.10L116.16-28.10L116.16-28.10Q116.16-26.82 115.81-20.83L115.81-20.83L115.81-20.83Q115.46-14.85 115.46-8.26L115.46-8.26L115.46-8.26Q115.46-1.66 116.22-0.06L116.22-0.06L116.22-0.06Q116.42 0.26 116.42 0.58L116.42 0.58L116.42 0.58Q116.42 1.41 113.98 1.41L113.98 1.41L113.98 1.41Q111.55 1.41 108.99 0.13L108.99 0.13L108.99 0.13Q108.35-0.19 108.35-1.92ZM126.40-24.13L126.40-24.13L126.40-24.13Q124.74-24.06 124.00-24.03L124.00-24.03L124.00-24.03Q123.26-24 123.26-24.38L123.26-24.38L123.26-24.38Q123.26-24.77 123.65-25.15L123.65-25.15L123.65-25.15Q127.74-28.93 137.47-28.93L137.47-28.93L137.47-28.93Q140.80-28.93 142.72-28.35L142.72-28.35L143.36-28.16L143.36-28.16Q144.13-27.84 144.13-27.46L144.13-27.46L144.13-27.46Q144.13-27.14 143.68-26.94L143.68-26.94L143.68-26.94Q141.95-26.43 140.35-25.31L140.35-25.31L140.35-25.31Q138.75-24.19 138.75-23.74L138.75-23.74L139.14-23.30L139.14-23.30Q141.18-22.14 142.30-19.65L142.30-19.65L142.30-19.65Q143.42-17.15 143.55-15.23L143.55-15.23L143.68-13.25L143.68-13.25Q143.68-6.91 140.16-2.82L140.16-2.82L140.16-2.82Q136.64 1.28 130.56 1.28L130.56 1.28L130.56 1.28Q127.49 1.28 125.25 0.19L125.25 0.19L125.25 0.19Q123.01-0.90 121.95-2.27L121.95-2.27L121.95-2.27Q120.90-3.65 120.26-5.38L120.26-5.38L120.26-5.38Q119.49-7.74 119.49-10.27L119.49-10.27L119.49-10.27Q119.49-12.80 120.35-15.36L120.35-15.36L120.35-15.36Q121.22-17.92 122.34-19.14L122.34-19.14L122.34-19.14Q123.46-20.35 124.86-21.12L124.86-21.12L124.86-21.12Q126.66-22.08 127.74-22.08L127.74-22.08L127.74-22.08Q128.83-22.08 128.83-21.63L128.83-21.63L128.45-20.99L128.45-20.99Q127.04-19.33 126.43-16.64L126.43-16.64L126.43-16.64Q125.82-13.95 125.82-11.87L125.82-11.87L125.82-11.87Q125.82-9.79 126.34-7.74L126.34-7.74L126.34-7.74Q126.85-5.70 127.49-4.70L127.49-4.70L127.49-4.70Q128.13-3.71 128.96-3.20L128.96-3.20L128.96-3.20Q130.18-2.43 131.52-2.43L131.52-2.43L131.52-2.43Q132.86-2.43 134.14-3.49L134.14-3.49L134.14-3.49Q135.42-4.54 136-6.27L136-6.27L136-6.27Q137.15-9.47 137.15-12.86L137.15-12.86L137.15-12.86Q137.15-18.24 134.43-21.18L134.43-21.18L134.43-21.18Q131.71-24.13 126.40-24.13ZM170.62 1.28L170.62 1.28L170.62 1.28Q169.98 1.73 169.66 1.73L169.66 1.73L169.66 1.73Q168.96 1.73 168.70 1.15L168.70 1.15L168.70 1.15Q166.78-2.69 165.50-9.22L165.50-9.22L165.50-9.22Q165.44-9.47 165.31-9.47L165.31-9.47L164.93-9.22L164.93-9.22Q163.20-6.14 160.93-3.52L160.93-3.52L160.93-3.52Q158.66-0.90 157.25 0.19L157.25 0.19L155.84 1.28L155.84 1.28Q155.20 1.86 154.82 1.86L154.82 1.86L154.82 1.86Q154.11 1.86 153.86 1.22L153.86 1.22L153.86 1.22Q152.45-1.47 150.59-9.22L150.59-9.22L150.02-11.84L150.02-11.84Q148.80-17.47 147.55-20.86L147.55-20.86L147.55-20.86Q146.30-24.26 145.66-24.83L145.66-24.83L145.02-25.41L145.02-25.41Q144.45-25.60 144.45-26.05L144.45-26.05L144.45-26.05Q144.45-26.94 147.10-27.97L147.10-27.97L147.10-27.97Q149.76-28.99 151.23-28.99L151.23-28.99L151.23-28.99Q152.70-28.99 153.18-27.81L153.18-27.81L153.18-27.81Q153.66-26.62 154.69-21.18L154.69-21.18L154.69-21.18Q157.38-6.85 158.59-6.85L158.59-6.85L158.59-6.85Q158.98-6.85 159.46-7.52L159.46-7.52L159.46-7.52Q159.94-8.19 160.61-9.15L160.61-9.15L160.61-9.15Q161.28-10.11 162.43-12.48L162.43-12.48L162.43-12.48Q163.58-14.85 163.58-16.64L163.58-16.64L163.58-16.64Q163.58-16.96 163.14-18.98L163.14-18.98L163.14-18.98Q162.69-20.99 161.82-22.88L161.82-22.88L161.82-22.88Q160.96-24.77 160.45-25.02L160.45-25.02L160.45-25.02Q159.30-25.66 159.30-26.11L159.30-26.11L159.30-26.11Q159.30-26.88 161.92-27.94L161.92-27.94L161.92-27.94Q164.54-28.99 166.66-28.99L166.66-28.99L166.66-28.99Q167.62-28.99 168.00-27.84L168.00-27.84L168.00-27.84Q168.96-24.83 170.30-17.02L170.30-17.02L170.30-17.02Q172.03-7.04 173.50-7.04L173.50-7.04L173.50-7.04Q174.02-7.04 175.04-8.48L175.04-8.48L175.04-8.48Q176.06-9.92 177.06-12.67L177.06-12.67L177.06-12.67Q178.05-15.42 178.05-17.38L178.05-17.38L178.05-17.38Q178.05-19.33 177.89-20.38L177.89-20.38L177.89-20.38Q177.73-21.44 176.77-22.85L176.77-22.85L176.77-22.85Q175.81-24.26 174.59-24.48L174.59-24.48L174.59-24.48Q173.38-24.70 173.38-25.28L173.38-25.28L173.38-25.28Q173.38-26.18 176.03-27.58L176.03-27.58L176.03-27.58Q178.69-28.99 181.50-28.99L181.50-28.99L181.50-28.99Q184.19-28.99 184.19-23.62L184.19-23.62L184.19-23.62Q184.19-16.90 180.22-9.79L180.22-9.79L180.22-9.79Q176.26-2.69 170.62 1.28ZM205.63-8.77L205.63-8.77L205.63-8.77Q205.63-6.02 204.58-3.97L204.58-3.97L204.58-3.97Q203.52-1.92 202.18-0.96L202.18-0.96L202.18-0.96Q200.83 0 198.98 0.58L198.98 0.58L198.98 0.58Q196.54 1.34 194.56 1.34L194.56 1.34L194.56 1.34Q190.40 1.34 187.65-0.29L187.65-0.29L187.65-0.29Q184.90-1.92 184.90-5.50L184.90-5.50L184.90-5.50Q184.90-7.62 186.05-8.96L186.05-8.96L186.05-8.96Q187.84-10.94 190.34-10.94L190.34-10.94L190.34-10.94Q191.10-10.94 191.10-10.24L191.10-10.24L191.10-10.24Q191.10-10.18 190.82-9.25L190.82-9.25L190.82-9.25Q190.53-8.32 190.53-6.91L190.53-6.91L190.53-6.91Q190.53-5.50 191.65-4.42L191.65-4.42L191.65-4.42Q192.77-3.33 194.37-3.33L194.37-3.33L194.37-3.33Q195.97-3.33 196.93-3.87L196.93-3.87L196.93-3.87Q197.89-4.42 198.27-5.25L198.27-5.25L198.27-5.25Q198.85-6.40 198.85-7.42L198.85-7.42L198.85-7.42Q198.85-9.28 196.99-10.62L196.99-10.62L196.99-10.62Q195.14-11.97 192.90-12.74L192.90-12.74L192.90-12.74Q190.66-13.50 188.80-15.30L188.80-15.30L188.80-15.30Q186.94-17.09 186.94-19.78L186.94-19.78L186.94-19.78Q186.94-24.38 189.86-26.69L189.86-26.69L189.86-26.69Q192.77-28.99 197.76-28.99L197.76-28.99L197.76-28.99Q199.94-28.99 202.34-28.38L202.34-28.38L202.34-28.38Q204.74-27.78 204.74-26.34L204.74-26.34L204.74-26.34Q204.74-24.90 204.26-23.68L204.26-23.68L204.26-23.68Q203.78-22.46 203.07-22.46L203.07-22.46L203.07-22.46Q202.69-22.46 202.56-22.75L202.56-22.75L202.56-22.75Q202.43-23.04 202.11-23.42L202.11-23.42L202.11-23.42Q201.79-23.81 200.58-24.42L200.58-24.42L200.58-24.42Q199.36-25.02 198.50-25.02L198.50-25.02L198.50-25.02Q197.63-25.02 197.34-24.99L197.34-24.99L197.34-24.99Q197.06-24.96 196.35-24.80L196.35-24.80L196.35-24.80Q195.65-24.64 195.07-24.32L195.07-24.32L195.07-24.32Q193.60-23.49 193.60-21.89L193.60-21.89L193.60-21.89Q193.60-20.86 194.05-20.38L194.05-20.38L194.05-20.38Q194.50-19.90 194.75-19.65L194.75-19.65L194.75-19.65Q195.01-19.39 195.65-19.04L195.65-19.04L195.65-19.04Q196.29-18.69 196.54-18.56L196.54-18.56L196.54-18.56Q196.80-18.43 197.70-18.02L197.70-18.02L197.70-18.02Q198.59-17.60 198.85-17.47L198.85-17.47L198.85-17.47Q205.63-14.27 205.63-8.77ZM221.38-20.74L221.38-20.74L221.38-20.74Q221.12-20.48 221.12-20.19L221.12-20.19L221.12-20.19Q221.12-19.90 222.30-19.65L222.30-19.65L222.30-19.65Q223.49-19.39 224.90-18.24L224.90-18.24L224.90-18.24Q226.30-17.09 227.01-15.74L227.01-15.74L227.01-15.74Q228.35-13.12 228.48-11.14L228.48-11.14L228.54-10.30L228.54-10.30Q228.86-2.82 231.30-0.06L231.30-0.06L231.30-0.06Q231.62 0.38 231.62 0.58L231.62 0.58L231.62 0.58Q231.62 1.28 229.82 1.28L229.82 1.28L229.82 1.28Q224.45 1.28 222.98-0.96L222.98-0.96L222.98-0.96Q222.21-1.86 222.21-6.53L222.21-6.53L222.21-8.13L222.21-8.13Q222.21-14.08 220.74-16.38L220.74-16.38L220.74-16.38Q219.97-17.47 218.85-17.47L218.85-17.47L218.85-17.47Q217.73-17.47 216.51-15.52L216.51-15.52L216.51-15.52Q215.30-13.57 215.30-12.22L215.30-12.22L215.30-12.22Q215.30-6.85 215.55-4.74L215.55-4.74L215.55-4.74Q215.81-2.62 215.81-2.56L215.81-2.56L215.81-2.56Q215.81-0.70 213.28 0.32L213.28 0.32L213.28 0.32Q210.75 1.34 208.51 1.34L208.51 1.34L208.51 1.34Q207.68 1.34 207.68 0.32L207.68 0.32L207.68 0.06L207.68 0.06Q209.22-7.81 209.22-24.77L209.22-24.77L209.22-24.77Q209.22-30.34 208.96-34.18L208.96-34.18L208.83-35.46L208.83-35.46Q208.70-37.25 208.10-38.53L208.10-38.53L208.10-38.53Q207.49-39.81 206.91-40.19L206.91-40.19L206.40-40.51L206.40-40.51Q205.95-40.77 205.95-41.09L205.95-41.09L205.95-41.09Q205.95-42.11 209.02-43.39L209.02-43.39L209.02-43.39Q212.10-44.67 214.34-44.67L214.34-44.67L214.34-44.67Q215.36-44.61 215.42-43.90L215.42-43.90L215.42-43.90Q215.74-41.34 215.74-33.38L215.74-33.38L215.74-33.38Q215.74-25.41 215.36-20.67L215.36-20.67L215.36-20.67Q215.36-19.90 215.62-19.90L215.62-19.90L215.62-19.90Q215.87-19.90 216.42-20.64L216.42-20.64L216.42-20.64Q216.96-21.38 218.34-22.98L218.34-22.98L218.34-22.98Q219.71-24.58 222.05-26.69L222.05-26.69L222.05-26.69Q224.38-28.80 225.82-28.80L225.82-28.80L225.82-28.80Q227.26-28.80 228.67-28.10L228.67-28.10L228.67-28.10Q230.08-27.39 230.08-26.75L230.08-26.75L229.38-26.30L229.38-26.30Q225.73-24.96 221.38-20.74ZM239.42-34.24L239.42-34.24L237.89-34.30L237.89-34.30Q236.16-34.30 235.65-33.47L235.65-33.47L235.65-33.47Q235.52-33.28 235.33-33.28L235.33-33.28L235.33-33.28Q234.50-33.28 234.50-36.13L234.50-36.13L234.50-36.13Q234.50-38.98 235.36-39.74L235.36-39.74L235.36-39.74Q236.22-40.51 238.37-40.51L238.37-40.51L238.37-40.51Q240.51-40.51 241.28-39.78L241.28-39.78L241.28-39.78Q242.05-39.04 242.05-37.31L242.05-37.31L242.05-37.31Q242.05-35.58 241.47-34.91L241.47-34.91L241.47-34.91Q240.90-34.24 239.42-34.24ZM234.30-1.92L234.30-1.92L235.01-16.83L235.01-16.83Q235.01-22.14 233.79-24.06L233.79-24.06L233.79-24.06Q233.41-24.70 232.90-25.02L232.90-25.02L232.90-25.02Q232.51-25.15 232.51-25.54L232.51-25.54L232.51-25.54Q232.51-26.69 235.78-27.78L235.78-27.78L235.78-27.78Q239.04-28.86 240.54-28.86L240.54-28.86L240.54-28.86Q242.05-28.86 242.11-28.10L242.11-28.10L242.11-28.10Q242.11-26.82 241.76-20.83L241.76-20.83L241.76-20.83Q241.41-14.85 241.41-8.26L241.41-8.26L241.41-8.26Q241.41-1.66 242.18-0.06L242.18-0.06L242.18-0.06Q242.37 0.26 242.37 0.58L242.37 0.58L242.37 0.58Q242.37 1.41 239.94 1.41L239.94 1.41L239.94 1.41Q237.50 1.41 234.94 0.13L234.94 0.13L234.94 0.13Q234.30-0.19 234.30-1.92ZM252.35-16.26L252.35-16.26L252.42-14.66L252.42-14.66Q252.42-14.27 252.93-14.27L252.93-14.27L252.93-14.27Q254.98-14.46 256.51-15.33L256.51-15.33L256.51-15.33Q258.05-16.19 258.82-17.28L258.82-17.28L258.82-17.28Q260.35-19.65 260.48-21.38L260.48-21.38L260.54-22.14L260.54-22.14Q260.54-25.60 257.79-25.60L257.79-25.60L257.79-25.60Q255.74-25.60 254.46-23.81L254.46-23.81L254.46-23.81Q252.35-20.99 252.35-16.26ZM266.30-7.74L266.30-7.74L266.30-7.74Q266.30-5.31 265.31-3.49L265.31-3.49L265.31-3.49Q264.32-1.66 263.07-0.80L263.07-0.80L263.07-0.80Q261.82 0.06 260.16 0.58L260.16 0.58L260.16 0.58Q258.05 1.22 256.13 1.22L256.13 1.22L256.13 1.22Q250.75 1.22 248.19-2.82L248.19-2.82L248.19-2.82Q245.63-6.85 245.63-13.09L245.63-13.09L245.63-13.09Q245.63-19.33 248.80-24.19L248.80-24.19L248.80-24.19Q251.97-29.06 258.30-29.06L258.30-29.06L258.30-29.06Q264.06-29.06 266.11-25.02L266.11-25.02L266.11-25.02Q266.94-23.49 266.94-22.11L266.94-22.11L266.94-22.11Q266.94-20.74 266.82-19.94L266.82-19.94L266.82-19.94Q266.69-19.14 265.92-17.54L265.92-17.54L265.92-17.54Q265.15-15.94 263.87-14.66L263.87-14.66L263.87-14.66Q262.59-13.38 259.84-12.22L259.84-12.22L259.84-12.22Q257.09-11.07 253.38-10.69L253.38-10.69L253.38-10.69Q252.86-10.69 252.86-10.24L252.86-10.24L252.86-10.24Q252.86-9.66 253.28-8.54L253.28-8.54L253.28-8.54Q253.70-7.42 254.21-6.66L254.21-6.66L254.21-6.66Q255.62-4.86 258.37-4.86L258.37-4.86L258.37-4.86Q261.12-4.86 263.04-6.66L263.04-6.66L263.04-6.66Q264.06-7.62 264.70-9.02L264.70-9.02L264.70-9.02Q264.96-9.54 265.38-9.54L265.38-9.54L265.38-9.54Q265.79-9.54 266.05-8.83L266.05-8.83L266.05-8.83Q266.30-8.13 266.30-7.74ZM291.20-45.12L301.06-44.93L311.04-45.31L311.04-45.31Q312.13-45.31 312.13-44.16L312.13-44.16L312.13-44.16Q312.13-41.98 301.89-24.99L301.89-24.99L301.89-24.99Q291.65-8 291.65-5.63L291.65-5.63L291.65-5.63Q291.65-3.84 296.77-3.84L296.77-3.84L296.77-3.84Q300.48-3.84 303.42-5.22L303.42-5.22L303.42-5.22Q306.37-6.59 306.37-9.60L306.37-9.60L306.37-9.60Q306.37-11.46 304.96-12.42L304.96-12.42L304.96-12.42Q303.55-13.38 301.70-13.38L301.70-13.38L301.70-13.38Q300.74-13.38 300.74-14.40L300.74-14.40L300.74-14.40Q300.74-16.51 302.82-18.11L302.82-18.11L302.82-18.11Q304.90-19.71 307.33-19.71L307.33-19.71L307.33-19.71Q308.48-19.71 309.76-19.01L309.76-19.01L309.76-19.01Q312.38-17.60 312.38-13.06L312.38-13.06L312.38-13.06Q312.38-6.14 308.86-0.64L308.86-0.64L308.86-0.64Q308.16 0.45 307.52 0.45L307.52 0.45L307.26 0.45L307.26 0.45Q302.98 0.19 298.05 0.19L298.05 0.19L285.25 0.51L280.45 0.38L280.45 0.38Q279.30 0.26 279.30-0.54L279.30-0.54L279.30-0.54Q279.30-1.34 280.54-4.06L280.54-4.06L280.54-4.06Q281.79-6.78 287.20-15.87L287.20-15.87L287.20-15.87Q292.61-24.96 294.14-27.65L294.14-27.65L294.14-27.65Q297.60-33.92 299.52-38.27L299.52-38.27L300.22-39.74L300.22-39.74Q300.35-40.13 300.35-40.26L300.35-40.26L300.35-40.26Q300.35-40.96 297.60-40.96L297.60-40.96L297.60-40.96Q294.85-40.96 292.58-40.19L292.58-40.19L292.58-40.19Q290.30-39.42 288.83-38.34L288.83-38.34L288.83-38.34Q285.82-36.10 284.67-34.24L284.67-34.24L284.16-33.47L284.16-33.47Q283.58-32.38 283.14-32.26L283.14-32.26L282.94-32.26L282.94-32.26Q282.56-32.26 282.27-32.48L282.27-32.48L282.27-32.48Q281.98-32.70 281.98-33.02L281.98-33.02L281.98-33.02Q281.98-39.62 283.14-43.52L283.14-43.52L283.14-43.52Q283.26-44.03 283.90-44.51L283.90-44.51L283.90-44.51Q284.54-44.99 286.18-45.06L286.18-45.06L286.18-45.06Q287.81-45.12 291.20-45.12L291.20-45.12ZM337.34-19.20L337.34-19.20L337.22-11.01L337.22-11.01Q337.22-2.50 339.07-0.77L339.07-0.77L339.07-0.77Q339.33-0.51 339.33-0.19L339.33-0.19L339.33-0.19Q339.33 0.77 335.20 0.77L335.20 0.77L335.20 0.77Q331.07 0.77 330.82-1.66L330.82-1.66L330.82-1.66Q330.75-2.24 330.75-4.03L330.75-4.03L331.01-14.27L331.01-14.27Q331.01-14.72 330.50-14.72L330.50-14.72L330.50-14.72Q327.42-14.72 324.74-12.99L324.74-12.99L324.74-12.99Q322.05-11.26 322.05-8.58L322.05-8.58L322.05-8.58Q322.05-7.17 322.82-6.21L322.82-6.21L322.82-6.21Q323.58-5.25 324.70-5.25L324.70-5.25L324.70-5.25Q325.82-5.25 326.56-5.70L326.56-5.70L326.56-5.70Q327.30-6.14 327.42-6.21L327.42-6.21L327.42-6.21Q328.51-6.08 328.51-3.94L328.51-3.94L328.51-3.94Q328.51-1.79 326.53-0.48L326.53-0.48L326.53-0.48Q324.54 0.83 322.37 0.83L322.37 0.83L322.37 0.83Q320.19 0.83 318.62 0.06L318.62 0.06L318.62 0.06Q317.06-0.70 316.35-1.66L316.35-1.66L316.35-1.66Q315.65-2.62 315.20-3.84L315.20-3.84L315.20-3.84Q314.75-5.31 314.75-6.40L314.75-6.40L314.75-6.40Q314.75-10.88 317.57-13.57L317.57-13.57L317.57-13.57Q320.38-16.26 324.80-17.41L324.80-17.41L324.80-17.41Q330.62-18.56 330.88-19.52L330.88-19.52L330.88-19.52Q331.07-20.22 331.07-21.89L331.07-21.89L331.07-21.89Q331.07-25.28 327.62-25.28L327.62-25.28L327.62-25.28Q326.14-25.28 324.99-24.35L324.99-24.35L324.99-24.35Q323.84-23.42 323.84-22.02L323.84-22.02L324.22-20.48L324.22-20.48Q324.10-19.39 321.92-19.20L321.92-19.20L321.22-19.14L321.22-19.14Q319.30-19.14 318.18-20.10L318.18-20.10L318.18-20.10Q317.06-21.06 317.06-22.66L317.06-22.66L317.06-22.66Q317.06-23.68 317.73-24.93L317.73-24.93L317.73-24.93Q318.40-26.18 319.42-26.94L319.42-26.94L319.42-26.94Q320.45-27.71 322.59-28.32L322.59-28.32L322.59-28.32Q324.74-28.93 326.72-28.93L326.72-28.93L326.72-28.93Q328.70-28.93 329.79-28.80L329.79-28.80L329.79-28.80Q330.88-28.67 332.77-28.19L332.77-28.19L332.77-28.19Q334.66-27.71 335.90-26.37L335.90-26.37L335.90-26.37Q337.15-25.02 337.25-23.52L337.25-23.52L337.25-23.52Q337.34-22.02 337.34-19.20ZM355.71 0.38L355.71 0.38L355.71 0.38Q356.61-4.10 356.61-12.19L356.61-12.19L356.61-12.19Q356.61-20.29 356.54-21.76L356.54-21.76L356.54-21.76Q356.48-23.23 355.65-24.13L355.65-24.13L355.65-24.13Q354.82-25.02 354.21-25.15L354.21-25.15L354.21-25.15Q353.60-25.28 352.51-25.28L352.51-25.28L352.51-25.28Q351.42-25.28 350.40-24.29L350.40-24.29L350.40-24.29Q349.38-23.30 349.18-22.27L349.18-22.27L348.93-21.25L348.93-21.25Q348.74-19.33 348.74-12.74L348.74-12.74L348.74-12.74Q348.74-6.14 349.02-4.45L349.02-4.45L349.02-4.45Q349.31-2.75 349.31-2.18L349.31-2.18L349.31-2.18Q349.31-1.60 348.80-1.02L348.80-1.02L348.80-1.02Q346.62 1.28 342.66 1.28L342.66 1.28L342.66 1.28Q341.25 1.28 341.25 0.45L341.25 0.45L341.25 0.45Q342.53-7.23 342.53-19.14L342.53-19.14L342.53-19.14Q342.53-23.55 342.34-25.09L342.34-25.09L342.08-27.14L342.08-27.14Q342.02-27.84 341.82-28.67L341.82-28.67L341.82-28.67Q341.82-29.44 343.81-29.44L343.81-29.44L343.81-29.44Q346.75-29.44 347.71-27.26L347.71-27.26L347.71-27.26Q347.78-27.01 347.97-27.01L347.97-27.01L347.97-27.01Q348.16-27.01 348.86-27.52L348.86-27.52L348.86-27.52Q350.98-29.18 354.56-29.18L354.56-29.18L354.56-29.18Q356.61-29.18 358.59-28.42L358.59-28.42L358.59-28.42Q360.58-27.65 361.34-26.37L361.34-26.37L361.34-26.37Q361.41-26.24 361.54-26.24L361.54-26.24L361.54-26.24Q361.66-26.24 361.92-26.50L361.92-26.50L361.92-26.50Q364.61-29.18 368.90-29.18L368.90-29.18L368.90-29.18Q374.59-29.18 376.70-25.09L376.70-25.09L376.70-25.09Q377.47-23.49 377.47-21.06L377.47-21.06L377.47-21.06Q377.47-18.62 377.09-14.14L377.09-14.14L377.09-14.14Q376.70-9.66 376.70-7.30L376.70-7.30L376.70-7.30Q376.70-4.93 377.18-3.01L377.18-3.01L377.18-3.01Q377.66-1.09 378.14-0.26L378.14-0.26L378.14-0.26Q378.62 0.58 378.62 0.70L378.62 0.70L378.62 0.70Q378.62 1.54 376.83 1.54L376.83 1.54L376.83 1.54Q372.42 1.54 370.69-0.26L370.69-0.26L370.69-0.26Q368.96-2.05 368.96-4.96L368.96-4.96L368.96-4.96Q368.96-7.87 370.14-12.83L370.14-12.83L370.14-12.83Q371.33-17.79 371.33-20.29L371.33-20.29L371.33-20.29Q371.33-25.34 367.23-25.34L367.23-25.34L367.23-25.34Q365.50-25.34 364.48-24.32L364.48-24.32L364.48-24.32Q363.46-23.30 363.26-22.27L363.26-22.27L363.14-21.25L363.14-21.25Q362.88-18.30 362.88-14.14L362.88-14.14L362.88-14.14Q362.88-9.98 363.01-7.65L363.01-7.65L363.01-7.65Q363.14-5.31 363.26-4L363.26-4L363.26-4Q363.39-2.69 363.39-2.43L363.39-2.43L363.39-2.43Q363.39-0.64 361.15 0.32L361.15 0.32L361.15 0.32Q358.91 1.28 356.80 1.28L356.80 1.28L356.80 1.28Q355.71 1.28 355.71 0.38ZM394.56-20.74L394.56-20.74L394.56-20.74Q394.30-20.48 394.30-20.19L394.30-20.19L394.30-20.19Q394.30-19.90 395.49-19.65L395.49-19.65L395.49-19.65Q396.67-19.39 398.08-18.24L398.08-18.24L398.08-18.24Q399.49-17.09 400.19-15.74L400.19-15.74L400.19-15.74Q401.54-13.12 401.66-11.14L401.66-11.14L401.73-10.30L401.73-10.30Q402.05-2.82 404.48-0.06L404.48-0.06L404.48-0.06Q404.80 0.38 404.80 0.58L404.80 0.58L404.80 0.58Q404.80 1.28 403.01 1.28L403.01 1.28L403.01 1.28Q397.63 1.28 396.16-0.96L396.16-0.96L396.16-0.96Q395.39-1.86 395.39-6.53L395.39-6.53L395.39-8.13L395.39-8.13Q395.39-14.08 393.92-16.38L393.92-16.38L393.92-16.38Q393.15-17.47 392.03-17.47L392.03-17.47L392.03-17.47Q390.91-17.47 389.70-15.52L389.70-15.52L389.70-15.52Q388.48-13.57 388.48-12.22L388.48-12.22L388.48-12.22Q388.48-6.85 388.74-4.74L388.74-4.74L388.74-4.74Q388.99-2.62 388.99-2.56L388.99-2.56L388.99-2.56Q388.99-0.70 386.46 0.32L386.46 0.32L386.46 0.32Q383.94 1.34 381.70 1.34L381.70 1.34L381.70 1.34Q380.86 1.34 380.86 0.32L380.86 0.32L380.86 0.06L380.86 0.06Q382.40-7.81 382.40-24.77L382.40-24.77L382.40-24.77Q382.40-30.34 382.14-34.18L382.14-34.18L382.02-35.46L382.02-35.46Q381.89-37.25 381.28-38.53L381.28-38.53L381.28-38.53Q380.67-39.81 380.10-40.19L380.10-40.19L379.58-40.51L379.58-40.51Q379.14-40.77 379.14-41.09L379.14-41.09L379.14-41.09Q379.14-42.11 382.21-43.39L382.21-43.39L382.21-43.39Q385.28-44.67 387.52-44.67L387.52-44.67L387.52-44.67Q388.54-44.61 388.61-43.90L388.61-43.90L388.61-43.90Q388.93-41.34 388.93-33.38L388.93-33.38L388.93-33.38Q388.93-25.41 388.54-20.67L388.54-20.67L388.54-20.67Q388.54-19.90 388.80-19.90L388.80-19.90L388.80-19.90Q389.06-19.90 389.60-20.64L389.60-20.64L389.60-20.64Q390.14-21.38 391.52-22.98L391.52-22.98L391.52-22.98Q392.90-24.58 395.23-26.69L395.23-26.69L395.23-26.69Q397.57-28.80 399.01-28.80L399.01-28.80L399.01-28.80Q400.45-28.80 401.86-28.10L401.86-28.10L401.86-28.10Q403.26-27.39 403.26-26.75L403.26-26.75L402.56-26.30L402.56-26.30Q398.91-24.96 394.56-20.74ZM412.61-34.24L412.61-34.24L411.07-34.30L411.07-34.30Q409.34-34.30 408.83-33.47L408.83-33.47L408.83-33.47Q408.70-33.28 408.51-33.28L408.51-33.28L408.51-33.28Q407.68-33.28 407.68-36.13L407.68-36.13L407.68-36.13Q407.68-38.98 408.54-39.74L408.54-39.74L408.54-39.74Q409.41-40.51 411.55-40.51L411.55-40.51L411.55-40.51Q413.70-40.51 414.46-39.78L414.46-39.78L414.46-39.78Q415.23-39.04 415.23-37.31L415.23-37.31L415.23-37.31Q415.23-35.58 414.66-34.91L414.66-34.91L414.66-34.91Q414.08-34.24 412.61-34.24ZM407.49-1.92L407.49-1.92L408.19-16.83L408.19-16.83Q408.19-22.14 406.98-24.06L406.98-24.06L406.98-24.06Q406.59-24.70 406.08-25.02L406.08-25.02L406.08-25.02Q405.70-25.15 405.70-25.54L405.70-25.54L405.70-25.54Q405.70-26.69 408.96-27.78L408.96-27.78L408.96-27.78Q412.22-28.86 413.73-28.86L413.73-28.86L413.73-28.86Q415.23-28.86 415.30-28.10L415.30-28.10L415.30-28.10Q415.30-26.82 414.94-20.83L414.94-20.83L414.94-20.83Q414.59-14.85 414.59-8.26L414.59-8.26L414.59-8.26Q414.59-1.66 415.36-0.06L415.36-0.06L415.36-0.06Q415.55 0.26 415.55 0.58L415.55 0.58L415.55 0.58Q415.55 1.41 413.12 1.41L413.12 1.41L413.12 1.41Q410.69 1.41 408.13 0.13L408.13 0.13L408.13 0.13Q407.49-0.19 407.49-1.92Z" fill="#f7c61d"></path></g></g><style>text {
  font-size: 64px;
  font-family: Arial Black;
  dominant-baseline: central;
  text-anchor: middle;
}</style></svg>